<svg width="107" height="107" viewBox="0 0 107 107" fill="none" xmlns="http://www.w3.org/2000/svg">
<circle cx="53.5" cy="53.5" r="53" fill="#D9D9D9" stroke="#A9A9A9"/>
<path d="M63.5223 51.9631C63.9639 51.9631 64.3206 52.1168 64.5924 52.4242C64.8641 52.6974 65 53.056 65 53.5C65 53.8757 64.8641 54.2172 64.5924 54.5246C64.3206 54.7978 63.9639 54.9344 63.5223 54.9344H54.6051V64.3094C54.6051 64.7876 54.4522 65.1974 54.1465 65.5389C53.8408 65.8463 53.4501 66 52.9745 66C52.5329 66 52.1423 65.8463 51.8025 65.5389C51.4968 65.1974 51.3439 64.8046 51.3439 64.3607V54.9344H42.4777C42.0361 54.9344 41.6794 54.7978 41.4076 54.5246C41.1359 54.2172 41 53.8415 41 53.3975C41 52.9877 41.1359 52.6462 41.4076 52.373C41.6794 52.0997 42.0361 51.9631 42.4777 51.9631H51.3439V42.6393C51.3439 42.1612 51.4968 41.7684 51.8025 41.4611C52.1083 41.1537 52.4989 41 52.9745 41C53.4841 41 53.8747 41.1537 54.1465 41.4611C54.4522 41.7343 54.6051 42.11 54.6051 42.5881V51.9631H63.5223Z" fill="#A9A9A9"/>
</svg>
